<?xml version="1.0" standalone="no"?><!DOCTYPE svg PUBLIC "-//W3C//DTD SVG 1.1//EN" "http://www.w3.org/Graphics/SVG/1.1/DTD/svg11.dtd"><svg t="1596955375942" class="icon" viewBox="0 0 1204 1024" version="1.1" xmlns="http://www.w3.org/2000/svg" p-id="3255" width="235.15625" height="200" xmlns:xlink="http://www.w3.org/1999/xlink"><defs><style type="text/css"></style></defs><path d="M1247.119 391.831l2.1 1.663q-1.035-0.875-2.1-1.663zM-33.29 394.223l3.792-3.004c-4.553 3.167-8.267 7.216-10.964 11.922z" p-id="3256" fill="#1296db"></path><path d="M100.094 1025.202c-0.335 2.246-0.686 4.478-0.991 6.738 0.632-2.397 1.004-5.153 1.025-7.992zM66.475 1057.29zM32.898 1021.133q0.365-2.523 0.758-5.046c-0.512 2.136-0.819 4.598-0.846 7.124z" p-id="3257" fill="#1296db"></path><path d="M1183.934 1013.3c0.422 2.64 0.802 5.294 1.181 7.948-0.106-3.188-0.621-6.214-1.497-9.083zM1116.45 1030.643c-0.291-2.086-0.597-4.157-0.919-6.228 0.164 2.851 0.645 5.522 1.408 8.070z" p-id="3258" fill="#1296db"></path><path d="M838.858 313.771h-46.031l-24.591 139.174h41.743q41.29 0 66.012-18.581t30.848-53.265q11.887-67.326-67.982-67.326z" p-id="3259" fill="#1296db"></path><path d="M983.722 204.992h-750.886c-0.008 0-0.018 0-0.027 0-31.855 0-57.681 25.807-57.715 57.653v374.76c0.031 31.85 25.86 57.656 57.715 57.656 0.010 0 0.019 0 0.029 0h750.885c0.012 0 0.027 0 0.045 0 31.852 0 57.675-25.809 57.7-57.654v-374.76c-0.023-31.849-25.848-57.656-57.7-57.656-0.014 0-0.029 0-0.047 0zM329.58 622.995l-64.278-348.869h50.102l45.9 272.748c1.11 6.693 1.744 14.404 1.744 22.263 0 3.179-0.105 6.334-0.309 9.463l1.145-0.426c6.755-22.046 17.464-41.111 31.416-57.305l126.091-246.742h48.293l-190.019 348.869h-50.086zM657.27 312.195l-48.131 272.748h33.546l-6.695 38.053h-112.307l6.723-38.068h33.619l48.131-272.748h-33.546l6.723-38.068h112.307l-6.723 38.068h-33.648zM954.537 379.288q-9.072 51.355-51.253 83.21t-96.642 30.104h-45.361l-23.030 130.393h-45.185l61.638-348.869h99.283q56.635 0 83.137 27.246t17.416 77.945z" p-id="3260" fill="#1296db"></path></svg>